<svg width="16" height="16" viewBox="0 0 16 16" fill="none" xmlns="http://www.w3.org/2000/svg">
<path fill-rule="evenodd" clip-rule="evenodd" d="M12.4876 0.454124C12.5006 0.3566 12.6415 0.3566 12.6545 0.454124C12.7532 1.18605 13.0895 1.86532 13.6117 2.38756C14.1339 2.9098 14.8132 3.2461 15.5451 3.34479C15.6427 3.35851 15.6427 3.4987 15.5451 3.51241C14.8132 3.6111 14.1339 3.94741 13.6117 4.46964C13.0895 4.99188 12.7532 5.67115 12.6545 6.40308C12.6415 6.5006 12.5006 6.5006 12.4868 6.40308C12.3882 5.67115 12.0519 4.99188 11.5296 4.46964C11.0074 3.94741 10.3281 3.6111 9.59618 3.51241C9.49866 3.4987 9.49866 3.35851 9.59618 3.34479C10.3282 3.24625 11.0077 2.91002 11.5301 2.38777C12.0525 1.86552 12.3889 1.18616 12.4876 0.454124ZM5.40723 3.55279C5.42932 3.38746 5.6678 3.38746 5.6899 3.55279C5.85741 4.79409 6.42788 5.94604 7.31363 6.83166C8.19939 7.71728 9.35143 8.28756 10.5928 8.45489C10.7581 8.47774 10.7581 8.71622 10.5928 8.73831C9.35132 8.90568 8.19919 9.47607 7.31342 10.3618C6.42765 11.2476 5.85726 12.3997 5.6899 13.6412C5.6678 13.8065 5.42932 13.8065 5.40723 13.6412C5.23986 12.3997 4.66947 11.2476 3.7837 10.3618C2.89793 9.47607 1.74581 8.90568 0.504371 8.73831C0.339038 8.71622 0.339038 8.47774 0.504371 8.45489C1.74569 8.28756 2.89774 7.71728 3.78349 6.83166C4.66925 5.94604 5.23971 4.79409 5.40723 3.55279ZM13.6434 11.6046C13.6343 11.5391 13.5406 11.5391 13.5322 11.6046C13.4665 12.0927 13.2422 12.5457 12.894 12.894C12.5457 13.2423 12.0927 13.4665 11.6046 13.5322C11.5398 13.5398 11.5398 13.6343 11.6046 13.6435C12.0927 13.7092 12.5457 13.9334 12.894 14.2817C13.2422 14.6299 13.4665 15.083 13.5322 15.5711C13.5406 15.6351 13.6343 15.6351 13.6434 15.5711C13.7091 15.083 13.9334 14.6299 14.2816 14.2817C14.6299 13.9334 15.0829 13.7092 15.571 13.6435C15.6358 13.6343 15.6358 13.5406 15.571 13.5315C15.0829 13.4657 14.6299 13.2415 14.2816 12.8932C13.9334 12.545 13.7091 12.092 13.6434 11.6038V11.6046Z" fill="white"/>
</svg>
